<svg width="256" height="256" version="1.1" viewBox="0 0 256 256" xmlns="http://www.w3.org/2000/svg">
 <title>D:\Antonio\MyStuff\Coding\Web\HomePrint\resources</title>
 <g>
  <rect width="256" height="256" rx="48" ry="48" fill="#333" stop-color="#000000" style="paint-order:stroke fill markers"/>
  <path d="m121.54 30.393c-33.911 29.797-67.823 59.594-101.73 89.391-8.7319 8.7319-4.4439 21.07 7.2117 21.07h13.781v73.872c0.71946 6.418 7.0497 12.884 13.031 13.031h147.75c5.9816-0.14699 12.312-6.6134 13.031-13.031v-73.872h13.781c11.655 0 15.943-12.338 7.2116-21.07-33.911-29.797-67.821-59.594-101.73-89.391-1.5654-1.3755-2.6252-2.1515-6.1678-2.1515-3.5426 0-4.6 0.77603-6.1654 2.1515z" fill="#7fffd4" stroke-width="1.2415"/>
  <path d="m156.35 79.565c-0.54999-0.01005-1.0522 0.0047-1.4687 0.0047h-64.781c-3.9179 0-12.219 6.6924-12.219 11.056v30.775h15.979v-25.065h59.682l7.9945 7.8753v17.19h15.875v-21.195c0-2.4992-1.4404-5.0925-3.4286-7.0806 3.8e-4 -5.68e-4 -12.36-11.741-12.36-11.741-1.5372-1.5372-3.6226-1.7893-5.2725-1.8195zm-82.96 50.609c-4.647 0.15227-12.21 6.2484-12.21 10.583v33.915c0 3.1315 0.06078 5.3982 4.0911 5.3982h12.714v22.241c0.23581 7.7289 2.4955 10.891 13.786 10.891h73.525c8.619 0 12.241-2.814 12.241-10.891v-22.241h12.586c4.0959 0 4.0911-3.3962 4.0911-5.3982v-33.915c0-5.9434-6.4673-10.583-12.208-10.583zm100.15 15.472a4.9702 4.9702 0 0 1 4.9707 4.969 4.9702 4.9702 0 0 1-4.9707 4.9706 4.9702 4.9702 0 0 1-4.9706-4.9706 4.9702 4.9702 0 0 1 4.9706-4.969zm-79.675 25.886h67.676v25.065h-67.676z" fill="#333" stroke-width=".83551"/>
 </g>
</svg>
